<svg id="Layer_1" data-name="Layer 1" xmlns="http://www.w3.org/2000/svg" xmlns:xlink="http://www.w3.org/1999/xlink" viewBox="0 0 54.5 54.5">
  <defs>
    <linearGradient id="linear-gradient" x1="27.25" y1="54" x2="27.25" y2="0.5" gradientUnits="userSpaceOnUse">
      <stop offset="0" stop-color="#2991cf"/>
      <stop offset="1" stop-color="#1b45bd"/>
    </linearGradient>
    <linearGradient id="linear-gradient-2" x1="7.97" y1="18.15" x2="52.52" y2="40.85" gradientUnits="userSpaceOnUse">
      <stop offset="0" stop-color="#ccc"/>
      <stop offset="0.23" stop-color="#cacaca"/>
      <stop offset="0.32" stop-color="#c3c3c3"/>
      <stop offset="0.38" stop-color="#b8b8b8"/>
      <stop offset="0.42" stop-color="#a7a7a7"/>
      <stop offset="0.47" stop-color="#919191"/>
      <stop offset="0.49" stop-color="gray"/>
      <stop offset="1" stop-color="#4d4d4d"/>
    </linearGradient>
    <linearGradient id="linear-gradient-3" x1="11.91" y1="29.5" x2="48.58" y2="29.5" gradientUnits="userSpaceOnUse">
      <stop offset="0" stop-color="#29abe2"/>
      <stop offset="1" stop-color="#1b1464"/>
    </linearGradient>
  </defs>
  <title>Untitled-4</title>
  <rect x="0.5" y="0.5" width="53.5" height="53.5" rx="12" ry="12" stroke="#fff" stroke-miterlimit="10" fill="url(#linear-gradient)"/>
  <g>
    <g>
      <path d="M18.29,38a1.88,1.88,0,0,1-1.87-1.89V22.89A1.88,1.88,0,0,1,18.29,21H42.21a1.88,1.88,0,0,1,1.87,1.89V36.11A1.88,1.88,0,0,1,42.21,38Z" transform="translate(-3.25 -2.25)" fill="#fff"/>
      <path d="M42.21,21.5a1.38,1.38,0,0,1,1.37,1.39V36.11a1.38,1.38,0,0,1-1.37,1.39H18.29a1.38,1.38,0,0,1-1.37-1.39V22.89a1.38,1.38,0,0,1,1.37-1.39H42.21m0-1H18.29a2.38,2.38,0,0,0-2.37,2.39V36.11a2.38,2.38,0,0,0,2.37,2.39H42.21a2.38,2.38,0,0,0,2.37-2.39V22.89a2.38,2.38,0,0,0-2.37-2.39Z" transform="translate(-3.25 -2.25)"/>
    </g>
    <path d="M54.9,25.34a25,25,0,0,0-7.34-13.88,25.47,25.47,0,0,0-2.23-1.91A24.89,24.89,0,0,0,38,5.73,24,24,0,0,0,35.06,5l-.66-.12a25,25,0,0,0-8.3,0L25.44,5a25.3,25.3,0,0,0-3.55,1,25,25,0,0,0-7.14,4,23.43,23.43,0,0,0-1.81,1.59A25,25,0,0,0,12.42,47a25.84,25.84,0,0,0,2,1.84,25,25,0,0,0,30.89.57,24.36,24.36,0,0,0,2.29-2A25,25,0,0,0,54.9,25.34ZM42.49,43.15A18.33,18.33,0,0,1,11.91,29.5c0-.22,0-.44,0-.66s0-.25,0-.37c0-.28,0-.57.07-.84s0-.31.05-.46q.05-.46.14-.91c0-.12,0-.24.07-.36a1.39,1.39,0,0,1,0-.15c0-.1,0-.2.06-.29l.1-.43.08-.3a17.64,17.64,0,0,1,.59-1.8l.15-.38,0-.06.1-.24c.18-.41.36-.81.57-1.2L14,21l.16-.3.17-.3.23-.38.24-.38L15,19.3c.15-.23.31-.45.47-.67l.3-.4L16,17.9l.27-.32.27-.31.28-.31.29-.3.29-.29c.2-.2.4-.39.61-.57l.3-.27.31-.26L19,15l.32-.25c.34-.26.69-.5,1.05-.73l.23-.14.07,0,.35-.21.35-.2.32-.18c.26-.14.52-.27.79-.39l.36-.16.35-.15.44-.17.26-.1a18,18,0,0,1,3.47-.9l.37-.05.34,0,.75-.07.47,0,.94,0,.94,0,.47,0,.75.07.34,0,.37.05a18,18,0,0,1,3.47.9l.25.1.44.17.35.15.36.16c.27.12.53.25.79.39l.32.18.35.2.35.21.07,0,.23.14c.36.23.71.47,1.05.73l.32.25.32.25.31.26.3.27.31.28.34.32.14.13.12.13.29.3.28.31.27.31.27.32.26.33.3.4c.16.22.32.44.47.67l.21.32.24.38.23.38.17.3.16.3,0,.07c.21.39.39.79.57,1.2l.1.24,0,.06.15.38a17.64,17.64,0,0,1,.59,1.8L48,25l.1.43c0,.1,0,.2.06.29a1.39,1.39,0,0,1,0,.15c0,.12.05.24.07.36q.08.45.14.91c0,.15,0,.31.05.46s.05.56.07.84c0,.12,0,.25,0,.37s0,.44,0,.66a18.29,18.29,0,0,1-6.09,13.65Z" transform="translate(-3.25 -2.25)" fill="url(#linear-gradient-2)"/>
    <g>
      <path d="M18.29,38a1.88,1.88,0,0,1-1.87-1.89V22.89A1.88,1.88,0,0,1,18.29,21H42.21a1.88,1.88,0,0,1,1.87,1.89V36.11A1.88,1.88,0,0,1,42.21,38Z" transform="translate(-3.25 -2.25)" fill="#fff"/>
      <path d="M42.21,21.5a1.38,1.38,0,0,1,1.37,1.39V36.11a1.38,1.38,0,0,1-1.37,1.39H18.29a1.38,1.38,0,0,1-1.37-1.39V22.89a1.38,1.38,0,0,1,1.37-1.39H42.21m0-1H18.29a2.38,2.38,0,0,0-2.37,2.39V36.11a2.38,2.38,0,0,0,2.37,2.39H42.21a2.38,2.38,0,0,0,2.37-2.39V22.89a2.38,2.38,0,0,0-2.37-2.39Z" transform="translate(-3.25 -2.25)"/>
    </g>
    <g>
      <path d="M18.29,38a1.88,1.88,0,0,1-1.87-1.89V22.89A1.88,1.88,0,0,1,18.29,21H42.21a1.88,1.88,0,0,1,1.87,1.89V36.11A1.88,1.88,0,0,1,42.21,38Z" transform="translate(-3.25 -2.25)" fill="#fff"/>
      <path d="M42.21,21.5a1.38,1.38,0,0,1,1.37,1.39V36.11a1.38,1.38,0,0,1-1.37,1.39H18.29a1.38,1.38,0,0,1-1.37-1.39V22.89a1.38,1.38,0,0,1,1.37-1.39H42.21m0-1H18.29a2.38,2.38,0,0,0-2.37,2.39V36.11a2.38,2.38,0,0,0,2.37,2.39H42.21a2.38,2.38,0,0,0,2.37-2.39V22.89a2.38,2.38,0,0,0-2.37-2.39Z" transform="translate(-3.25 -2.25)"/>
    </g>
    <path d="M34.41,53.5c0,.11,0,.22,0,.32a25.29,25.29,0,0,1-8.31,0c0-.11,0-.21,0-.32a4.17,4.17,0,1,1,8.33,0Z" transform="translate(-3.25 -2.25)" fill="#e6e7e8" stroke="#231f20" stroke-linecap="round" stroke-miterlimit="10"/>
    <path d="M34.41,5.5a4.17,4.17,0,1,1-8.33,0c0-.11,0-.21,0-.32a25.05,25.05,0,0,1,8.31,0C34.41,5.29,34.41,5.39,34.41,5.5Z" transform="translate(-3.25 -2.25)" fill="#e6e7e8" stroke="#231f20" stroke-linecap="round" stroke-miterlimit="10"/>
    <path d="M45.33,9.89A4.17,4.17,0,0,1,38,6.06,24.9,24.9,0,0,1,45.33,9.89Z" transform="translate(-3.25 -2.25)" fill="#e6e7e8" stroke="#231f20" stroke-linecap="round" stroke-miterlimit="10"/>
    <path d="M22.08,7.5a4.17,4.17,0,0,1-7.33,2.71,25,25,0,0,1,7.14-4A4.21,4.21,0,0,1,22.08,7.5Z" transform="translate(-3.25 -2.25)" fill="#e6e7e8" stroke="#231f20" stroke-linecap="round" stroke-miterlimit="10"/>
    <path d="M45.32,49.11A24.92,24.92,0,0,1,38,52.94a4.17,4.17,0,0,1,7.32-3.83Z" transform="translate(-3.25 -2.25)" fill="#e6e7e8" stroke="#231f20" stroke-linecap="round" stroke-miterlimit="10"/>
    <path d="M22.08,50.83a4.16,4.16,0,0,1-.42,1.82,24.94,24.94,0,0,1-7.23-4.12,4.17,4.17,0,0,1,7.64,2.3Z" transform="translate(-3.25 -2.25)" fill="#e6e7e8" stroke="#231f20" stroke-linecap="round" stroke-miterlimit="10"/>
    <path d="M51.74,42.26a25,25,0,0,1-4.13,5.21l-5.13-4.33a18.33,18.33,0,0,0,4.07-5.27Z" transform="translate(-3.25 -2.25)" fill="#e6e7e8" stroke="#231f20" stroke-linecap="round" stroke-miterlimit="10"/>
    <path d="M17.53,42.71,12.42,47a25,25,0,0,1-4-5.32l5.22-4.41A18.35,18.35,0,0,0,17.53,42.71Z" transform="translate(-3.25 -2.25)" fill="#fff" stroke="#231f20" stroke-linecap="round" stroke-miterlimit="10"/>
    <path d="M51.7,16.67,46.52,21l0-.07-.16-.3-.17-.3L45.93,20l-.24-.38-.21-.32c-.15-.23-.31-.45-.47-.67l-.3-.4-.26-.33-.27-.32-.27-.31L43.62,17l-.29-.3-.12-.13-.14-.13-.34-.32-.31-.28,5.13-4.34A24.91,24.91,0,0,1,51.7,16.67Z" transform="translate(-3.25 -2.25)" fill="#e6e7e8" stroke="#231f20" stroke-linecap="round" stroke-miterlimit="10"/>
    <path d="M48.57,28.84c0-.13,0-.25,0-.37,0-.28,0-.57-.07-.84s0-.31-.05-.46q-.05-.46-.14-.91,0-.18-.07-.36a1.39,1.39,0,0,0,0-.15c0-.1,0-.2-.06-.29L48,25l-.08-.3a17.64,17.64,0,0,0-.59-1.8l-.15-.38,0-.06-.1-.24c-.18-.41-.36-.81-.57-1.2l0-.07-.16-.3-.17-.3L45.93,20l-.24-.38-.21-.32c-.15-.23-.31-.45-.47-.67l-.3-.4-.26-.33-.27-.32-.27-.31L43.62,17l-.29-.3-.12-.13-.14-.13-.34-.32-.31-.28-.3-.27-.31-.26L41.49,15l-.32-.25c-.34-.26-.69-.5-1.05-.73l-.23-.14-.07,0-.35-.21-.35-.2-.32-.18c-.26-.14-.52-.27-.79-.39l-.36-.16-.35-.15-.44-.17-.25-.1a18,18,0,0,0-3.47-.9l-.37-.05-.34,0-.75-.07-.47,0-.94,0-.94,0-.47,0-.75.07-.34,0-.37.05a18,18,0,0,0-3.47.9l-.26.1-.44.17-.35.15-.36.16c-.27.12-.53.25-.79.39l-.32.18-.35.2-.35.21-.07,0-.23.14c-.36.23-.71.47-1.05.73L19,15l-.32.25-.31.26-.3.27c-.21.18-.41.37-.61.57l-.29.29-.29.3-.28.31-.27.31L16,17.9l-.26.33-.3.4c-.16.22-.32.44-.47.67l-.21.32-.24.38-.23.38-.17.3L14,21,14,21c-.21.39-.39.79-.57,1.2l-.1.24,0,.06-.15.38a17.64,17.64,0,0,0-.59,1.8l-.08.3-.1.43c0,.1,0,.2-.06.29a1.39,1.39,0,0,0,0,.15q0,.18-.07.36-.08.45-.14.91c0,.15,0,.31-.05.46s-.05.56-.07.84c0,.12,0,.25,0,.37s0,.44,0,.66a18.33,18.33,0,1,0,36.67,0C48.58,29.28,48.58,29.06,48.57,28.84Zm-4,7.27a2.38,2.38,0,0,1-2.37,2.39H18.29a2.38,2.38,0,0,1-2.37-2.39V22.89a2.38,2.38,0,0,1,2.37-2.39H42.21a2.38,2.38,0,0,1,2.37,2.39Z" transform="translate(-3.25 -2.25)" stroke="#231f20" stroke-linecap="round" stroke-miterlimit="10" fill="url(#linear-gradient-3)"/>
    <path d="M18.07,15.8c-.21.18-.41.37-.61.57l-.29.29-.29.3-.28.31-.27.31L16,17.9l-.26.33-.3.4c-.16.22-.32.44-.47.67l-.21.32-.24.38-.23.38-.17.3L14,21,14,21,8.79,16.66a24.94,24.94,0,0,1,4.15-5.2Z" transform="translate(-3.25 -2.25)" fill="#e6e7e8" stroke="#231f20" stroke-linecap="round" stroke-miterlimit="10"/>
    <path d="M55.24,29.5a25,25,0,0,1-.35,4.16,4.17,4.17,0,0,1,0-8.32A25,25,0,0,1,55.24,29.5Z" transform="translate(-3.25 -2.25)" fill="#e6e7e8" stroke="#231f20" stroke-linecap="round" stroke-miterlimit="10"/>
    <path d="M9.88,29.83A4.15,4.15,0,0,1,5.74,34h-.1a25.17,25.17,0,0,1-.4-4.5,24.72,24.72,0,0,1,.29-3.83h.21A4.15,4.15,0,0,1,9.88,29.83Z" transform="translate(-3.25 -2.25)" fill="#e6e7e8" stroke="#231f20" stroke-linecap="round" stroke-miterlimit="10"/>
    <rect x="17.89" y="38.08" width="7.28" height="3.67" rx="1.83" ry="1.83" fill="#e6e7e8" stroke="#231f20" stroke-linecap="round" stroke-miterlimit="10"/>
    <rect x="28.49" y="38.08" width="7.28" height="3.67" rx="1.83" ry="1.83" fill="#e6e7e8" stroke="#231f20" stroke-linecap="round" stroke-miterlimit="10"/>
  </g>
</svg>
